# Blender 4.0.1
# www.blender.org
mtllib handler.mtl
o Cube
v 0.010000 -0.053571 0.005000
v 0.010000 0.053571 0.005000
v 0.010000 0.053571 -0.005000
v 0.000000 0.053571 -0.005000
v 0.000000 0.053571 0.005000
v 0.010000 -0.053571 -0.005000
v 0.000000 -0.053571 0.005000
v 0.000000 -0.053571 -0.005000
v 0.010000 0.075000 -0.003000
v 0.010000 0.073000 -0.005000
v 0.010000 0.074732 -0.004000
v 0.010000 0.074000 -0.004732
v 0.010000 -0.073000 -0.005000
v 0.010000 -0.075000 -0.003000
v 0.010000 -0.074000 -0.004732
v 0.010000 -0.074732 -0.004000
v 0.010000 0.073000 0.005000
v 0.010000 0.075000 0.003000
v 0.010000 0.074000 0.004732
v 0.010000 0.074732 0.004000
v 0.010000 -0.075000 0.003000
v 0.010000 -0.073000 0.005000
v 0.010000 -0.074732 0.004000
v 0.010000 -0.074000 0.004732
v 0.023000 0.053571 -0.005000
v 0.025000 0.053571 -0.003000
v 0.024000 0.053571 -0.004732
v 0.024732 0.053571 -0.004000
v 0.025000 -0.053571 -0.003000
v 0.023000 -0.053571 -0.005000
v 0.024732 -0.053571 -0.004000
v 0.024000 -0.053571 -0.004732
v 0.025000 0.053571 0.003000
v 0.023000 0.053571 0.005000
v 0.024732 0.053571 0.004000
v 0.024000 0.053571 0.004732
v 0.023000 -0.053571 0.005000
v 0.025000 -0.053571 0.003000
v 0.024000 -0.053571 0.004732
v 0.024732 -0.053571 0.004000
v 0.000000 0.073000 0.005000
v 0.000000 0.075000 0.003000
v 0.000000 0.074000 0.004732
v 0.000000 0.074732 0.004000
v 0.000000 0.075000 -0.003000
v 0.000000 0.073000 -0.005000
v 0.000000 0.074732 -0.004000
v 0.000000 0.074000 -0.004732
v 0.000000 -0.073000 -0.005000
v 0.000000 -0.075000 -0.003000
v 0.000000 -0.074000 -0.004732
v 0.000000 -0.074732 -0.004000
v 0.000000 -0.075000 0.003000
v 0.000000 -0.073000 0.005000
v 0.000000 -0.074732 0.004000
v 0.000000 -0.074000 0.004732
v 0.019803 0.073000 -0.005000
v 0.020000 0.075000 -0.003000
v 0.019901 0.074000 -0.004732
v 0.019974 0.074732 -0.004000
v 0.023000 0.069803 -0.005000
v 0.025000 0.070000 -0.003000
v 0.024000 0.069902 -0.004732
v 0.024732 0.069974 -0.004000
v 0.021133 0.072735 -0.005000
v 0.021913 0.074619 -0.003000
v 0.021523 0.073677 -0.004732
v 0.021809 0.074367 -0.004000
v 0.022094 0.072094 -0.005000
v 0.023536 0.073536 -0.003000
v 0.022815 0.072815 -0.004732
v 0.023342 0.073342 -0.004000
v 0.022735 0.071133 -0.005000
v 0.024619 0.071913 -0.003000
v 0.023677 0.071523 -0.004732
v 0.024367 0.071809 -0.004000
v 0.023000 -0.069803 -0.005000
v 0.025000 -0.070000 -0.003000
v 0.024000 -0.069902 -0.004732
v 0.024732 -0.069974 -0.004000
v 0.019803 -0.073000 -0.005000
v 0.020000 -0.075000 -0.003000
v 0.019901 -0.074000 -0.004732
v 0.019974 -0.074732 -0.004000
v 0.022735 -0.071133 -0.005000
v 0.024619 -0.071913 -0.003000
v 0.023677 -0.071523 -0.004732
v 0.024367 -0.071809 -0.004000
v 0.022094 -0.072094 -0.005000
v 0.023536 -0.073536 -0.003000
v 0.022815 -0.072815 -0.004732
v 0.023342 -0.073342 -0.004000
v 0.021133 -0.072735 -0.005000
v 0.021913 -0.074619 -0.003000
v 0.021523 -0.073677 -0.004732
v 0.021809 -0.074367 -0.004000
v 0.023000 0.069803 0.005000
v 0.025000 0.070000 0.003000
v 0.024000 0.069902 0.004732
v 0.024732 0.069974 0.004000
v 0.019803 0.073000 0.005000
v 0.020000 0.075000 0.003000
v 0.019901 0.074000 0.004732
v 0.019974 0.074732 0.004000
v 0.022735 0.071133 0.005000
v 0.024619 0.071913 0.003000
v 0.023677 0.071523 0.004732
v 0.024367 0.071809 0.004000
v 0.022094 0.072094 0.005000
v 0.023536 0.073536 0.003000
v 0.022815 0.072815 0.004732
v 0.023342 0.073342 0.004000
v 0.021133 0.072735 0.005000
v 0.021913 0.074619 0.003000
v 0.021523 0.073677 0.004732
v 0.021809 0.074367 0.004000
v 0.019803 -0.073000 0.005000
v 0.020000 -0.075000 0.003000
v 0.019901 -0.074000 0.004732
v 0.019974 -0.074732 0.004000
v 0.023000 -0.069803 0.005000
v 0.025000 -0.070000 0.003000
v 0.024000 -0.069902 0.004732
v 0.024732 -0.069974 0.004000
v 0.021133 -0.072735 0.005000
v 0.021913 -0.074619 0.003000
v 0.021523 -0.073677 0.004732
v 0.021809 -0.074367 0.004000
v 0.022094 -0.072094 0.005000
v 0.023536 -0.073536 0.003000
v 0.022815 -0.072815 0.004732
v 0.023342 -0.073342 0.004000
v 0.022735 -0.071133 0.005000
v 0.024619 -0.071913 0.003000
v 0.023677 -0.071523 0.004732
v 0.024367 -0.071809 0.004000
vn 0.0972 0.9867 -0.1301
vn -0.0000 0.9914 -0.1305
vn -0.0000 0.9914 0.1305
vn 0.0972 0.9867 0.1301
vn -0.0000 -0.0000 -1.0000
vn 0.1305 -0.0000 -0.9914
vn -0.0000 -0.1305 0.9914
vn -0.0000 -0.0000 1.0000
vn -0.0000 0.1305 0.9914
vn -0.0000 -0.9914 -0.1305
vn -0.0000 -0.9914 0.1305
vn -0.0000 -0.1305 -0.9914
vn 0.1305 -0.0000 0.9914
vn 0.1372 0.0135 0.9904
vn 0.1329 0.0550 0.9896
vn 0.1017 0.1017 0.9896
vn 0.0550 0.1329 0.9896
vn 0.0135 0.1372 0.9904
vn 0.0135 -0.1372 0.9904
vn 0.0550 -0.1329 0.9896
vn 0.1017 -0.1017 0.9896
vn 0.1329 -0.0550 0.9896
vn 0.1372 -0.0135 0.9904
vn -0.0000 -1.0000 -0.0000
vn -0.0000 0.1305 -0.9914
vn -1.0000 -0.0000 -0.0000
vn 0.9914 -0.0000 -0.1305
vn 0.9867 0.0972 -0.1301
vn 0.9867 0.0972 0.1301
vn 0.9914 -0.0000 0.1305
vn 0.0135 0.1372 -0.9904
vn 0.0550 0.1329 -0.9896
vn 0.1017 0.1017 -0.9896
vn 0.1329 0.0550 -0.9896
vn 0.1372 0.0135 -0.9904
vn 0.3794 0.9159 0.1308
vn 0.3794 0.9159 -0.1308
vn 0.1372 -0.0135 -0.9904
vn 0.1329 -0.0550 -0.9896
vn 0.1017 -0.1017 -0.9896
vn 0.0550 -0.1329 -0.9896
vn 0.0135 -0.1372 -0.9904
vn -0.0000 1.0000 -0.0000
vn 0.0972 -0.9867 -0.1301
vn 0.0972 -0.9867 0.1301
vn 0.9159 0.3794 -0.1308
vn 0.9159 0.3794 0.1308
vn 0.7010 0.7010 -0.1308
vn 0.7010 0.7010 0.1308
vn 0.9159 -0.3794 0.1308
vn 0.9159 -0.3794 -0.1308
vn 0.9867 -0.0972 -0.1301
vn 0.9867 -0.0972 0.1301
vn 0.7010 -0.7010 0.1308
vn 0.7010 -0.7010 -0.1308
vn 0.3794 -0.9159 0.1308
vn 0.3794 -0.9159 -0.1308
vn -0.0000 0.8660 -0.5000
vn -0.0000 0.5000 -0.8660
vn -0.0000 0.8660 0.5000
vn -0.0000 0.5000 0.8660
vn 0.5000 -0.0000 0.8660
vn 0.8660 -0.0000 0.5000
vn 0.5000 -0.0000 -0.8660
vn 0.8660 -0.0000 -0.5000
vn -0.0000 -0.8660 0.5000
vn -0.0000 -0.5000 0.8660
vn -0.0000 -0.5000 -0.8660
vn -0.0000 -0.8660 -0.5000
vn 0.0500 0.5079 -0.8600
vn 0.1979 0.4778 -0.8559
vn 0.0852 0.8649 -0.4947
vn 0.3330 0.8040 -0.4926
vn 0.1979 0.4778 0.8559
vn 0.0500 0.5079 0.8600
vn 0.3330 0.8040 0.4926
vn 0.0852 0.8649 0.4947
vn 0.3657 0.3657 -0.8559
vn 0.6154 0.6154 -0.4926
vn 0.3657 0.3657 0.8559
vn 0.6154 0.6154 0.4926
vn 0.4778 0.1979 -0.8559
vn 0.8040 0.3330 -0.4926
vn 0.4778 0.1979 0.8559
vn 0.8040 0.3330 0.4926
vn 0.5079 0.0500 -0.8600
vn 0.8649 0.0852 -0.4947
vn 0.5079 0.0500 0.8600
vn 0.8649 0.0852 0.4947
vn 0.0500 -0.5079 0.8600
vn 0.1979 -0.4778 0.8559
vn 0.0852 -0.8649 0.4947
vn 0.3330 -0.8040 0.4926
vn 0.1979 -0.4778 -0.8559
vn 0.0500 -0.5079 -0.8600
vn 0.3330 -0.8040 -0.4926
vn 0.0852 -0.8649 -0.4947
vn 0.3657 -0.3657 0.8559
vn 0.6154 -0.6154 0.4926
vn 0.3657 -0.3657 -0.8559
vn 0.6154 -0.6154 -0.4926
vn 0.4778 -0.1979 0.8559
vn 0.8040 -0.3330 0.4926
vn 0.4778 -0.1979 -0.8559
vn 0.8040 -0.3330 -0.4926
vn 0.5079 -0.0500 0.8600
vn 0.8649 -0.0852 0.4947
vn 0.5079 -0.0500 -0.8600
vn 0.8649 -0.0852 -0.4947
vt 0.687500 0.550000
vt 0.875000 0.550000
vt 0.875000 0.700000
vt 0.687500 0.700000
vt 0.589286 0.250000
vt 0.589286 0.475000
vt 0.410714 0.475000
vt 0.410714 0.250000
vt 0.378333 1.000000
vt 0.410714 1.000000
vt 0.589286 1.000000
vt 0.621667 1.000000
vt 0.125000 0.550000
vt 0.125000 0.700000
vt 0.125000 0.550000
vt 0.378333 0.250000
vt 0.589286 0.775000
vt 0.410714 0.775000
vt 0.616338 0.775000
vt 0.618555 0.778307
vt 0.620156 0.786330
vt 0.621226 0.798337
vt 0.621667 0.814963
vt 0.378333 0.814963
vt 0.378774 0.798337
vt 0.379844 0.786330
vt 0.381445 0.778307
vt 0.383662 0.775000
vt 0.589286 0.000000
vt 0.621667 0.250000
vt 0.375000 0.050000
vt 0.375447 0.025000
vt 0.376667 0.006699
vt 0.378333 0.000000
vt 0.410714 0.000000
vt 0.376667 0.243301
vt 0.375447 0.225000
vt 0.375000 0.200000
vt 0.589286 0.550000
vt 0.616667 0.550000
vt 0.616667 0.700000
vt 0.589286 0.700000
vt 0.621667 0.435037
vt 0.621226 0.451663
vt 0.620156 0.463670
vt 0.618555 0.471693
vt 0.616338 0.475000
vt 0.589286 0.550000
vt 0.410714 0.700000
vt 0.410714 0.550000
vt 0.621667 0.000000
vt 0.623333 0.006699
vt 0.624553 0.025000
vt 0.625000 0.050000
vt 0.625000 0.200000
vt 0.624553 0.225000
vt 0.623333 0.243301
vt 0.687500 0.550000
vt 0.687500 0.700000
vt 0.663582 0.700000
vt 0.663582 0.550000
vt 0.383662 0.475000
vt 0.381445 0.471693
vt 0.379844 0.463670
vt 0.378774 0.451663
vt 0.378333 0.435037
vt 0.312500 0.550000
vt 0.312500 0.700000
vt 0.619856 0.550000
vt 0.619856 0.700000
vt 0.616667 0.550000
vt 0.625000 0.550000
vt 0.625000 0.700000
vt 0.619856 0.550000
vt 0.380144 0.700000
vt 0.380144 0.550000
vt 0.383333 0.550000
vt 0.383333 0.700000
vt 0.663582 0.550000
vt 0.625000 0.550000
vt 0.375000 0.700000
vt 0.375000 0.550000
vt 0.380144 0.550000
vt 0.380144 0.700000
vt 0.336418 0.700000
vt 0.336418 0.550000
vt 0.375000 0.550000
vt 0.312500 0.700000
vt 0.312500 0.550000
vt 0.336418 0.550000
vt 0.383333 0.550000
vt 0.410714 0.550000
vt 0.875000 0.550000
vt 0.875000 0.550000
vt 0.875000 0.500000
vt 0.625000 0.250000
vt 0.623333 0.250000
vt 0.875000 0.700000
vt 0.875000 0.750000
vt 0.625000 1.000000
vt 0.623333 1.000000
vt 0.410714 0.762500
vt 0.589286 0.762500
vt 0.410714 0.725000
vt 0.589286 0.725000
vt 0.589286 0.487500
vt 0.410714 0.487500
vt 0.589286 0.525000
vt 0.410714 0.525000
vt 0.125000 0.725000
vt 0.125000 0.750000
vt 0.375000 1.000000
vt 0.375000 0.250000
vt 0.125000 0.500000
vt 0.125000 0.525000
vt 0.623333 0.436269
vt 0.622796 0.456541
vt 0.624991 0.437823
vt 0.624383 0.460764
vt 0.664236 0.500000
vt 0.687177 0.500000
vt 0.622796 0.793459
vt 0.623333 0.813731
vt 0.624383 0.789236
vt 0.624991 0.812177
vt 0.687177 0.750000
vt 0.664236 0.750000
vt 0.621358 0.472682
vt 0.624316 0.461972
vt 0.622609 0.481140
vt 0.626054 0.500000
vt 0.662528 0.500000
vt 0.621358 0.777318
vt 0.622609 0.768860
vt 0.624316 0.788028
vt 0.662528 0.750000
vt 0.626054 0.750000
vt 0.619205 0.483468
vt 0.622485 0.482064
vt 0.619930 0.494872
vt 0.619996 0.500000
vt 0.624859 0.500000
vt 0.619205 0.766532
vt 0.619929 0.755128
vt 0.622485 0.767936
vt 0.624859 0.750000
vt 0.619996 0.750000
vt 0.616503 0.487500
vt 0.619769 0.495372
vt 0.616710 0.499936
vt 0.616710 0.500000
vt 0.619769 0.500000
vt 0.616503 0.762500
vt 0.616710 0.750064
vt 0.619769 0.754628
vt 0.619769 0.750000
vt 0.616710 0.750000
vt 0.375032 0.811293
vt 0.375570 0.791021
vt 0.333979 0.750000
vt 0.313707 0.750000
vt 0.312824 0.725000
vt 0.335764 0.725000
vt 0.375570 0.458979
vt 0.375032 0.438707
vt 0.313707 0.500000
vt 0.333979 0.500000
vt 0.335764 0.525000
vt 0.312823 0.525000
vt 0.375818 0.786515
vt 0.377257 0.770373
vt 0.371066 0.750000
vt 0.340352 0.750000
vt 0.337472 0.725000
vt 0.373946 0.725000
vt 0.377257 0.479627
vt 0.375819 0.463485
vt 0.340352 0.500000
vt 0.371066 0.500000
vt 0.373946 0.525000
vt 0.337472 0.525000
vt 0.377716 0.766925
vt 0.379869 0.756139
vt 0.379620 0.750000
vt 0.375524 0.750000
vt 0.375141 0.725000
vt 0.380004 0.725000
vt 0.379869 0.493861
vt 0.377716 0.483076
vt 0.375525 0.500000
vt 0.379620 0.500000
vt 0.380004 0.525000
vt 0.375141 0.525000
vt 0.380469 0.754272
vt 0.383172 0.750240
vt 0.383172 0.750000
vt 0.380469 0.750000
vt 0.380231 0.725000
vt 0.383290 0.725000
vt 0.383172 0.499760
vt 0.380469 0.495728
vt 0.380469 0.500000
vt 0.383172 0.500000
vt 0.383290 0.525000
vt 0.380231 0.525000
vt 0.616623 0.525000
vt 0.616623 0.725000
vt 0.625000 0.437170
vt 0.687830 0.500000
vt 0.625000 0.812830
vt 0.687830 0.750000
vt 0.312170 0.525000
vt 0.311269 0.500000
vt 0.375000 0.436269
vt 0.383377 0.525000
vt 0.383498 0.487500
vt 0.383498 0.762500
vt 0.383377 0.725000
vt 0.375000 0.813731
vt 0.311269 0.750000
vt 0.312170 0.725000
s 1
usemtl Material
f 58/1/1 9/2/2 18/3/3 102/4/4
f 3/5/5 25/6/6 30/7/6 6/8/5
f 22/9/7 1/10/8 7/10/8 54/9/7
f 2/11/8 17/12/9 41/12/9 5/11/8
f 14/13/10 21/14/11 53/14/11 50/15/10
f 6/8/5 13/16/12 49/16/12 8/8/5
f 34/17/13 2/11/8 1/10/8 37/18/13
f 34/17/13 97/19/14 105/20/15 109/21/16 113/22/17 101/23/18 17/12/9 2/11/8
f 117/24/19 125/25/20 129/26/21 133/27/22 121/28/23 37/18/13 1/10/8 22/9/7
f 3/5/24 2/29/24 5/29/24 4/5/24
f 10/30/25 3/5/5 4/5/5 46/30/25
f 53/31/26 55/32/26 56/33/26 54/34/26 7/35/26 8/8/26 49/16/26 51/36/26 52/37/26 50/38/26
f 2/29/26 3/5/26 6/8/26 1/35/26
f 26/39/27 62/40/28 98/41/29 33/42/30
f 3/5/5 10/30/25 57/43/31 65/44/32 69/45/33 73/46/34 61/47/35 25/6/6
f 26/48/27 33/42/30 38/49/30 29/50/27
f 5/29/26 41/51/26 43/52/26 44/53/26 42/54/26 45/55/26 47/56/26 48/57/26 46/30/26 4/5/26
f 58/58/1 102/59/4 114/60/36 66/61/37
f 13/16/12 6/8/5 30/7/6 77/62/38 85/63/39 89/64/40 93/65/41 81/66/42
f 1/35/43 6/8/43 8/8/43 7/35/43
f 14/15/10 82/67/44 118/68/45 21/14/11
f 74/69/46 106/70/47 98/41/29 62/71/28
f 70/72/48 110/73/49 106/70/47 74/74/46
f 134/75/50 86/76/51 78/77/52 122/78/53
f 66/79/37 114/60/36 110/73/49 70/80/48
f 130/81/54 90/82/55 86/83/51 134/84/50
f 126/85/56 94/86/57 90/87/55 130/81/54
f 118/88/45 82/89/44 94/90/57 126/85/56
f 78/91/52 29/92/27 38/49/30 122/78/53
f 45/93/2 9/94/2 11/95/58 47/95/58
f 47/96/58 11/96/58 12/97/59 48/97/59
f 48/97/59 12/97/59 10/30/25 46/30/25
f 18/98/3 42/3/3 44/99/60 20/99/60
f 20/100/60 44/100/60 43/101/61 19/101/61
f 19/101/61 43/101/61 41/12/9 17/12/9
f 34/17/13 37/18/13 39/102/62 36/103/62
f 36/103/62 39/102/62 40/104/63 35/105/63
f 35/105/63 40/104/63 38/49/30 33/42/30
f 30/7/6 25/6/6 27/106/64 32/107/64
f 32/107/64 27/106/64 28/108/65 31/109/65
f 31/109/65 28/108/65 26/48/27 29/50/27
f 53/14/11 21/14/11 23/110/66 55/110/66
f 55/110/66 23/110/66 24/111/67 56/111/67
f 56/112/67 24/112/67 22/9/7 54/9/7
f 49/16/12 13/16/12 15/113/68 51/113/68
f 51/114/68 15/114/68 16/115/69 52/115/69
f 52/115/69 16/115/69 14/13/10 50/15/10
f 65/44/32 57/43/31 59/116/70 67/117/71
f 67/117/71 59/116/70 60/118/72 68/119/73
f 68/120/73 60/121/72 58/58/1 66/61/37
f 101/23/18 113/22/17 115/122/74 103/123/75
f 103/123/75 115/122/74 116/124/76 104/125/77
f 104/126/77 116/127/76 114/60/36 102/59/4
f 69/45/33 65/44/32 67/117/71 71/128/78
f 71/128/78 67/117/71 68/129/73 72/130/79
f 72/131/79 68/132/73 66/79/37 70/80/48
f 113/22/17 109/21/16 111/133/80 115/122/74
f 115/122/74 111/133/80 112/134/81 116/135/76
f 116/136/76 112/137/81 110/73/49 114/60/36
f 73/46/34 69/45/33 71/128/78 75/138/82
f 75/138/82 71/128/78 72/139/79 76/140/83
f 76/141/83 72/142/79 70/72/48 74/74/46
f 109/21/16 105/20/15 107/143/84 111/133/80
f 111/133/80 107/143/84 108/144/85 112/145/81
f 112/146/81 108/147/85 106/70/47 110/73/49
f 61/47/35 73/46/34 75/138/82 63/148/86
f 63/148/86 75/138/82 76/149/83 64/150/87
f 64/151/87 76/152/83 74/69/46 62/71/28
f 105/20/15 97/19/14 99/153/88 107/143/84
f 107/143/84 99/153/88 100/154/89 108/155/85
f 108/156/85 100/157/89 98/41/29 106/70/47
f 125/25/20 117/24/19 119/158/90 127/159/91
f 127/160/91 119/161/90 120/162/92 128/163/93
f 128/163/93 120/162/92 118/88/45 126/85/56
f 81/66/42 93/65/41 95/164/94 83/165/95
f 83/166/95 95/167/94 96/168/96 84/169/97
f 84/169/97 96/168/96 94/90/57 82/89/44
f 129/26/21 125/25/20 127/170/91 131/171/98
f 131/172/98 127/173/91 128/174/93 132/175/99
f 132/175/99 128/174/93 126/85/56 130/81/54
f 93/65/41 89/64/40 91/176/100 95/177/94
f 95/178/94 91/179/100 92/180/101 96/181/96
f 96/181/96 92/180/101 90/87/55 94/86/57
f 133/27/22 129/26/21 131/182/98 135/183/102
f 135/184/102 131/185/98 132/186/99 136/187/103
f 136/187/103 132/186/99 130/81/54 134/84/50
f 89/64/40 85/63/39 87/188/104 91/189/100
f 91/190/100 87/191/104 88/192/105 92/193/101
f 92/193/101 88/192/105 86/83/51 90/82/55
f 121/28/23 133/27/22 135/194/102 123/195/106
f 123/196/106 135/197/102 136/198/103 124/199/107
f 124/199/107 136/198/103 134/75/50 122/78/53
f 85/63/39 77/62/38 79/200/108 87/201/104
f 87/202/104 79/203/108 80/204/109 88/205/105
f 88/205/105 80/204/109 78/77/52 86/76/51
f 25/6/6 61/47/35 63/148/86 27/106/64
f 27/106/64 63/148/86 64/206/87 28/108/65
f 28/108/65 64/206/87 62/40/28 26/39/27
f 97/19/14 34/17/13 36/103/62 99/153/88
f 99/153/88 36/103/62 35/105/63 100/207/89
f 100/207/89 35/105/63 33/42/30 98/41/29
f 57/43/31 10/30/25 12/97/59 59/116/70
f 59/116/70 12/97/59 11/96/58 60/208/72
f 60/209/72 11/95/58 9/2/2 58/1/1
f 17/12/9 101/23/18 103/123/75 19/101/61
f 19/101/61 103/123/75 104/210/77 20/100/60
f 20/99/60 104/211/77 102/4/4 18/3/3
f 82/67/44 14/15/10 16/115/69 84/212/97
f 84/212/97 16/115/69 15/114/68 83/213/95
f 83/214/95 15/113/68 13/16/12 81/66/42
f 29/92/27 78/91/52 80/215/109 31/109/65
f 31/109/65 80/215/109 79/216/108 32/107/64
f 32/107/64 79/216/108 77/62/38 30/7/6
f 37/18/13 121/28/23 123/217/106 39/102/62
f 39/102/62 123/217/106 124/218/107 40/104/63
f 40/104/63 124/218/107 122/78/53 38/49/30
f 117/24/19 22/9/7 24/112/67 119/219/90
f 119/220/90 24/111/67 23/110/66 120/221/92
f 120/221/92 23/110/66 21/14/11 118/68/45
f 18/98/3 9/94/2 45/93/2 42/3/3
